<mxfile host="65bd71144e">
    <diagram name="Page-1" id="e7e014a7-5840-1c2e-5031-d8a46d1fe8dd">
        <mxGraphModel dx="1655" dy="1064" grid="1" gridSize="10" guides="1" tooltips="1" connect="1" arrows="1" fold="1" page="1" pageScale="1" pageWidth="1169" pageHeight="826" background="none" math="0" shadow="0">
            <root>
                <mxCell id="0"/>
                <mxCell id="1" parent="0"/>
                <mxCell id="2" value="User" style="swimlane;whiteSpace=wrap;movable=0;" parent="1" vertex="1">
                    <mxGeometry x="164.5" y="128" width="280" height="570" as="geometry"/>
                </mxCell>
                <mxCell id="5" value="" style="ellipse;shape=startState;fillColor=#000000;strokeColor=#ff0000;" parent="2" vertex="1">
                    <mxGeometry x="125" y="32" width="30" height="30" as="geometry"/>
                </mxCell>
                <mxCell id="6" value="" style="edgeStyle=elbowEdgeStyle;elbow=horizontal;verticalAlign=bottom;endArrow=open;endSize=8;endFill=1;rounded=1;strokeColor=#FF0000;" parent="2" source="5" edge="1">
                    <mxGeometry x="100" y="40" as="geometry">
                        <mxPoint x="140.5" y="82" as="targetPoint"/>
                    </mxGeometry>
                </mxCell>
                <mxCell id="73" value="click on search bar" style="rounded=1;whiteSpace=wrap;html=1;arcSize=40;fontColor=#000000;fillColor=#ffffc0;strokeColor=#ff0000;" vertex="1" parent="2">
                    <mxGeometry x="80" y="82" width="120" height="40" as="geometry"/>
                </mxCell>
                <mxCell id="74" value="" style="edgeStyle=orthogonalEdgeStyle;html=1;verticalAlign=bottom;endArrow=open;endSize=8;strokeColor=#ff0000;entryX=0.5;entryY=0;entryDx=0;entryDy=0;" edge="1" source="73" parent="2" target="75">
                    <mxGeometry relative="1" as="geometry">
                        <mxPoint x="140" y="152" as="targetPoint"/>
                    </mxGeometry>
                </mxCell>
                <mxCell id="75" value="input name or EAN" style="rounded=1;whiteSpace=wrap;html=1;arcSize=40;fontColor=#000000;fillColor=#ffffc0;strokeColor=#ff0000;" vertex="1" parent="2">
                    <mxGeometry x="80" y="157" width="120" height="40" as="geometry"/>
                </mxCell>
                <mxCell id="83" value="click on specific product" style="rounded=1;whiteSpace=wrap;html=1;arcSize=40;fontColor=#000000;fillColor=#ffffc0;strokeColor=#ff0000;" vertex="1" parent="2">
                    <mxGeometry x="80" y="337" width="120" height="40" as="geometry"/>
                </mxCell>
                <mxCell id="3" value="App" style="swimlane;whiteSpace=wrap;startSize=23;movable=0;" parent="1" vertex="1">
                    <mxGeometry x="444.5" y="128" width="280" height="570" as="geometry"/>
                </mxCell>
                <mxCell id="54" value="" style="ellipse;html=1;shape=endState;fillColor=#000000;strokeColor=#ff0000;" parent="3" vertex="1">
                    <mxGeometry x="125.5" y="532" width="30" height="30" as="geometry"/>
                </mxCell>
                <mxCell id="77" value="show error message" style="rounded=1;whiteSpace=wrap;html=1;arcSize=40;fontColor=#000000;fillColor=#ffffc0;strokeColor=#ff0000;" vertex="1" parent="3">
                    <mxGeometry x="80.5" y="237" width="120" height="40" as="geometry"/>
                </mxCell>
                <mxCell id="80" value="list product(s)" style="rounded=1;whiteSpace=wrap;html=1;arcSize=40;fontColor=#000000;fillColor=#ffffc0;strokeColor=#ff0000;" vertex="1" parent="3">
                    <mxGeometry x="80.5" y="337" width="120" height="40" as="geometry"/>
                </mxCell>
                <mxCell id="85" value="open product page&amp;nbsp;" style="rounded=1;whiteSpace=wrap;html=1;arcSize=40;fontColor=#000000;fillColor=#ffffc0;strokeColor=#ff0000;" vertex="1" parent="3">
                    <mxGeometry x="80.5" y="432" width="120" height="40" as="geometry"/>
                </mxCell>
                <mxCell id="86" value="" style="edgeStyle=orthogonalEdgeStyle;html=1;verticalAlign=bottom;endArrow=open;endSize=8;strokeColor=#ff0000;entryX=0.5;entryY=0;entryDx=0;entryDy=0;" edge="1" source="85" parent="3" target="54">
                    <mxGeometry relative="1" as="geometry">
                        <mxPoint x="155.5" y="522" as="targetPoint"/>
                    </mxGeometry>
                </mxCell>
                <mxCell id="4" value="Firebase" style="swimlane;whiteSpace=wrap;startSize=23;movable=0;" parent="1" vertex="1">
                    <mxGeometry x="724.5" y="128" width="280" height="570" as="geometry"/>
                </mxCell>
                <mxCell id="44" value="&lt;font color=&quot;#000000&quot;&gt;Nr of results&lt;/font&gt;" style="rhombus;whiteSpace=wrap;html=1;fillColor=#ffffc0;strokeColor=#ff0000;" parent="4" vertex="1">
                    <mxGeometry x="100" y="233" width="80" height="48" as="geometry"/>
                </mxCell>
                <mxCell id="87" value="fetch possible&lt;br style=&quot;padding: 0px ; margin: 0px&quot;&gt;results" style="rounded=1;whiteSpace=wrap;html=1;arcSize=40;fontColor=#000000;fillColor=#ffffc0;strokeColor=#ff0000;" vertex="1" parent="4">
                    <mxGeometry x="80" y="157" width="120" height="40" as="geometry"/>
                </mxCell>
                <mxCell id="88" value="" style="edgeStyle=orthogonalEdgeStyle;html=1;verticalAlign=bottom;endArrow=open;endSize=8;strokeColor=#ff0000;entryX=0.5;entryY=0;entryDx=0;entryDy=0;" edge="1" source="87" parent="4" target="44">
                    <mxGeometry relative="1" as="geometry">
                        <mxPoint x="155.5" y="152" as="targetPoint"/>
                    </mxGeometry>
                </mxCell>
                <mxCell id="61" style="edgeStyle=orthogonalEdgeStyle;rounded=1;orthogonalLoop=1;jettySize=auto;html=1;exitX=0;exitY=0.5;exitDx=0;exitDy=0;fillColor=#e51400;strokeColor=#FF0000;entryX=1;entryY=0.5;entryDx=0;entryDy=0;" parent="1" source="44" target="77" edge="1">
                    <mxGeometry relative="1" as="geometry">
                        <mxPoint x="660" y="385" as="targetPoint"/>
                        <Array as="points">
                            <mxPoint x="645" y="385"/>
                        </Array>
                    </mxGeometry>
                </mxCell>
                <mxCell id="63" value="0" style="edgeLabel;html=1;align=center;verticalAlign=middle;resizable=0;points=[];" parent="61" connectable="0" vertex="1">
                    <mxGeometry x="-0.8799" relative="1" as="geometry">
                        <mxPoint as="offset"/>
                    </mxGeometry>
                </mxCell>
                <mxCell id="67" style="edgeStyle=orthogonalEdgeStyle;rounded=1;orthogonalLoop=1;jettySize=auto;html=1;exitX=0.5;exitY=1;exitDx=0;exitDy=0;entryX=1;entryY=0.5;entryDx=0;entryDy=0;strokeColor=#FF0000;" parent="1" source="44" target="80" edge="1">
                    <mxGeometry relative="1" as="geometry">
                        <mxPoint x="660" y="485" as="targetPoint"/>
                    </mxGeometry>
                </mxCell>
                <mxCell id="69" value="&lt;span style=&quot;text-align: left&quot;&gt;â‰¥1&lt;/span&gt;" style="edgeLabel;html=1;align=center;verticalAlign=middle;resizable=0;points=[];" parent="67" connectable="0" vertex="1">
                    <mxGeometry x="-0.9168" relative="1" as="geometry">
                        <mxPoint as="offset"/>
                    </mxGeometry>
                </mxCell>
                <mxCell id="76" value="" style="edgeStyle=orthogonalEdgeStyle;html=1;verticalAlign=bottom;endArrow=open;endSize=8;strokeColor=#ff0000;entryX=0;entryY=0.5;entryDx=0;entryDy=0;" edge="1" source="75" parent="1" target="87">
                    <mxGeometry relative="1" as="geometry">
                        <mxPoint x="789.5" y="305" as="targetPoint"/>
                    </mxGeometry>
                </mxCell>
                <mxCell id="78" value="" style="edgeStyle=orthogonalEdgeStyle;html=1;verticalAlign=bottom;endArrow=open;endSize=8;strokeColor=#ff0000;entryX=0.5;entryY=1;entryDx=0;entryDy=0;" edge="1" source="77" parent="1" target="75">
                    <mxGeometry relative="1" as="geometry">
                        <mxPoint x="260" y="450" as="targetPoint"/>
                    </mxGeometry>
                </mxCell>
                <mxCell id="81" value="" style="edgeStyle=orthogonalEdgeStyle;html=1;verticalAlign=bottom;endArrow=open;endSize=8;strokeColor=#ff0000;entryX=1;entryY=0.5;entryDx=0;entryDy=0;" edge="1" source="80" parent="1" target="83">
                    <mxGeometry relative="1" as="geometry">
                        <mxPoint x="379.5" y="485" as="targetPoint"/>
                    </mxGeometry>
                </mxCell>
                <mxCell id="84" value="" style="edgeStyle=orthogonalEdgeStyle;html=1;verticalAlign=bottom;endArrow=open;endSize=8;strokeColor=#ff0000;entryX=0;entryY=0.5;entryDx=0;entryDy=0;exitX=0.5;exitY=1;exitDx=0;exitDy=0;" edge="1" source="83" parent="1" target="85">
                    <mxGeometry relative="1" as="geometry">
                        <mxPoint x="510" y="585" as="targetPoint"/>
                    </mxGeometry>
                </mxCell>
            </root>
        </mxGraphModel>
    </diagram>
</mxfile>